<svg width="94" height="33" viewBox="0 0 94 33" fill="none" xmlns="http://www.w3.org/2000/svg">
<path d="M14.5 23.342L9.5042 19.098C5.97059 16.0961 0 18.2181 0 22.4621V28H29V11.024L14.5 23.342Z" fill="white"/>
<path d="M14.5 4.65804L19.4958 8.90203C23.0294 11.9039 29 9.78189 29 5.53789V0H0V16.976L14.5 4.65804Z" fill="white"/>
<path d="M42.8945 20.5767C42.0257 20.9972 40.8913 21.2075 39.4912 21.2075C37.665 21.2075 36.229 20.6707 35.1831 19.5972C34.1372 18.5236 33.6143 17.0931 33.6143 15.3057C33.6143 13.402 34.2008 11.8581 35.374 10.6738C36.5527 9.48958 38.0801 8.89746 39.9561 8.89746C41.1182 8.89746 42.0977 9.04411 42.8945 9.3374V11.9189C42.0977 11.443 41.1901 11.2051 40.1719 11.2051C39.054 11.2051 38.152 11.5565 37.4658 12.2593C36.7796 12.9621 36.4365 13.9139 36.4365 15.1147C36.4365 16.2658 36.7603 17.1844 37.4077 17.8706C38.0552 18.5513 38.9268 18.8916 40.0225 18.8916C41.0684 18.8916 42.0257 18.637 42.8945 18.1279V20.5767ZM58.3632 21H55.7153V13.8779C55.7153 13.1087 55.7485 12.2593 55.8149 11.3296H55.7485C55.6101 12.0601 55.4856 12.5858 55.3749 12.9067L52.5859 21H50.3945L47.5556 12.9897C47.4781 12.7739 47.3536 12.2205 47.1821 11.3296H47.1073C47.1793 12.5028 47.2153 13.5321 47.2153 14.4175V21H44.7997V9.09668H48.726L51.1581 16.1523C51.3518 16.7168 51.4929 17.284 51.5815 17.854H51.6313C51.7807 17.1955 51.9384 16.6227 52.1044 16.1357L54.5365 9.09668H58.3632V21ZM60.3514 20.5435V17.8872C60.8329 18.2912 61.3558 18.5955 61.9203 18.8003C62.4847 18.9995 63.0547 19.0991 63.6302 19.0991C63.9678 19.0991 64.2611 19.0687 64.5101 19.0078C64.7647 18.9469 64.9749 18.8639 65.141 18.7588C65.3125 18.6481 65.4398 18.5208 65.5228 18.377C65.6058 18.2275 65.6473 18.0671 65.6473 17.8955C65.6473 17.6631 65.5809 17.4556 65.4481 17.2729C65.3153 17.0903 65.1327 16.9215 64.9002 16.7666C64.6733 16.6117 64.4022 16.4622 64.0868 16.3184C63.7713 16.1745 63.431 16.0278 63.0658 15.8784C62.1361 15.491 61.4416 15.0179 60.9823 14.459C60.5285 13.9001 60.3016 13.2249 60.3016 12.4336C60.3016 11.8138 60.4261 11.2826 60.6751 10.8398C60.9242 10.3916 61.2617 10.0236 61.6878 9.73584C62.1195 9.44808 62.6175 9.23779 63.182 9.10498C63.7464 8.96663 64.3441 8.89746 64.9749 8.89746C65.5947 8.89746 66.1426 8.9362 66.6185 9.01367C67.0999 9.08561 67.5426 9.19906 67.9466 9.354V11.8359C67.7474 11.6976 67.5288 11.5758 67.2909 11.4707C67.0584 11.3656 66.8177 11.2798 66.5687 11.2134C66.3197 11.1414 66.0706 11.0889 65.8216 11.0557C65.5781 11.0225 65.3457 11.0059 65.1244 11.0059C64.82 11.0059 64.5433 11.0363 64.2943 11.0972C64.0453 11.1525 63.835 11.2327 63.6634 11.3379C63.4919 11.443 63.3591 11.5703 63.265 11.7197C63.1709 11.8636 63.1239 12.0269 63.1239 12.2095C63.1239 12.4087 63.1764 12.5885 63.2816 12.749C63.3867 12.904 63.5361 13.0534 63.7298 13.1973C63.9235 13.3356 64.1587 13.474 64.4354 13.6123C64.7121 13.7451 65.0247 13.8835 65.3734 14.0273C65.8493 14.2266 66.2754 14.4396 66.6517 14.6665C67.0335 14.8879 67.36 15.1396 67.6312 15.4219C67.9024 15.7041 68.1099 16.0278 68.2537 16.3931C68.3976 16.7528 68.4696 17.1733 68.4696 17.6548C68.4696 18.3188 68.3423 18.8778 68.0877 19.3315C67.8387 19.7798 67.4984 20.145 67.0667 20.4272C66.6351 20.7039 66.1315 20.9032 65.556 21.0249C64.986 21.1466 64.3828 21.2075 63.7464 21.2075C63.0934 21.2075 62.4709 21.1522 61.8787 21.0415C61.2922 20.9308 60.783 20.7648 60.3514 20.5435Z" fill="white"/>
</svg>
