<svg width="96" height="39" viewBox="0 0 96 39" fill="none" xmlns="http://www.w3.org/2000/svg">
<path d="M14.8085 27.586L9.70642 22.5703C6.09762 19.0227 0 21.5305 0 26.5461V33.0909H29.617V13.0284L14.8085 27.586Z" fill="#201B21"/>
<path d="M14.8085 5.50496L19.9106 10.5206C23.5194 14.0682 29.617 11.5604 29.617 6.54478V0H0V20.0625L14.8085 5.50496Z" fill="#201B21"/>
<path d="M45.3428 23.8656C44.3206 24.3604 42.986 24.6078 41.3389 24.6078C39.1904 24.6078 37.501 23.9763 36.2705 22.7132C35.04 21.4502 34.4248 19.7673 34.4248 17.6644C34.4248 15.4248 35.1149 13.6084 36.4951 12.2152C37.8818 10.822 39.6787 10.1254 41.8857 10.1254C43.2529 10.1254 44.4053 10.2979 45.3428 10.6429V13.68C44.4053 13.1201 43.3376 12.8402 42.1396 12.8402C40.8245 12.8402 39.7633 13.2536 38.9561 14.0804C38.1488 14.9073 37.7451 16.027 37.7451 17.4398C37.7451 18.794 38.126 19.8747 38.8877 20.682C39.6494 21.4828 40.6748 21.8832 41.9639 21.8832C43.1943 21.8832 44.3206 21.5837 45.3428 20.9847V23.8656ZM63.5412 24.3636H60.426V15.9847C60.426 15.0798 60.465 14.0804 60.5432 12.9867H60.465C60.3023 13.8461 60.1558 14.4645 60.0256 14.8422L56.7443 24.3636H54.1662L50.8264 14.9398C50.7352 14.6859 50.5887 14.0349 50.3869 12.9867H50.299C50.3837 14.3669 50.426 15.5778 50.426 16.6195V24.3636H47.5842V10.3597H52.2033L55.0646 18.6605C55.2925 19.3246 55.4585 19.9919 55.5627 20.6625H55.6213C55.7971 19.8877 55.9826 19.2139 56.1779 18.641L59.0393 10.3597H63.5412V24.3636ZM65.8803 23.8265V20.7015C66.4467 21.1768 67.0619 21.5349 67.726 21.7757C68.39 22.0101 69.0606 22.1273 69.7377 22.1273C70.1348 22.1273 70.4799 22.0915 70.7729 22.0199C71.0723 21.9483 71.3197 21.8506 71.515 21.7269C71.7169 21.5967 71.8666 21.447 71.9643 21.2777C72.0619 21.1019 72.1107 20.9131 72.1107 20.7113C72.1107 20.4379 72.0326 20.1937 71.8764 19.9789C71.7201 19.764 71.5053 19.5655 71.2318 19.3832C70.9649 19.2009 70.6459 19.0251 70.2748 18.8558C69.9037 18.6866 69.5033 18.514 69.0736 18.3382C67.9799 17.8825 67.1628 17.3259 66.6225 16.6683C66.0886 16.0108 65.8217 15.2165 65.8217 14.2855C65.8217 13.5563 65.9682 12.9313 66.2611 12.4105C66.5541 11.8832 66.9512 11.4502 67.4525 11.1117C67.9604 10.7731 68.5463 10.5257 69.2104 10.3695C69.8744 10.2067 70.5775 10.1254 71.3197 10.1254C72.0489 10.1254 72.6934 10.1709 73.2533 10.2621C73.8197 10.3467 74.3406 10.4802 74.8158 10.6625V13.5824C74.5814 13.4196 74.3243 13.2764 74.0443 13.1527C73.7709 13.029 73.4877 12.9281 73.1947 12.85C72.9018 12.7653 72.6088 12.7035 72.3158 12.6644C72.0294 12.6254 71.7559 12.6058 71.4955 12.6058C71.1374 12.6058 70.8119 12.6416 70.5189 12.7132C70.226 12.7783 69.9786 12.8728 69.7768 12.9964C69.5749 13.1201 69.4187 13.2699 69.308 13.4457C69.1973 13.6149 69.142 13.807 69.142 14.0218C69.142 14.2562 69.2038 14.4678 69.3275 14.6566C69.4512 14.8389 69.627 15.0147 69.8549 15.1839C70.0827 15.3467 70.3594 15.5095 70.685 15.6722C71.0105 15.8285 71.3783 15.9912 71.7885 16.1605C72.3484 16.3949 72.8497 16.6455 73.2924 16.9125C73.7416 17.1729 74.1257 17.4691 74.4447 17.8011C74.7637 18.1332 75.0079 18.514 75.1771 18.9437C75.3464 19.3669 75.4311 19.8617 75.4311 20.4281C75.4311 21.2093 75.2813 21.8669 74.9818 22.4007C74.6889 22.9281 74.2885 23.3578 73.7807 23.6898C73.2729 24.0153 72.6804 24.2497 72.0033 24.3929C71.3327 24.5362 70.6231 24.6078 69.8744 24.6078C69.1062 24.6078 68.3738 24.5427 67.6771 24.4125C66.987 24.2823 66.3881 24.0869 65.8803 23.8265Z" fill="black"/>
</svg>
