<svg width="30" height="34" viewBox="0 0 30 34" fill="none" xmlns="http://www.w3.org/2000/svg">
<path d="M16.2106 26.2076C15.4324 26.9726 14.1846 26.9726 13.4064 26.2076L9.70642 22.5703C6.09762 19.0227 0 21.5305 0 26.5461V31.0909C0 32.1955 0.895431 33.0909 2 33.0909H27.617C28.7216 33.0909 29.617 32.1955 29.617 31.0909V17.7991C29.617 16.0255 27.4797 15.1295 26.2149 16.3728L16.2106 26.2076Z" fill="#1877F2"/>
<path d="M13.4064 6.88327C14.1846 6.11827 15.4324 6.11827 16.2106 6.88327L19.9106 10.5206C23.5194 14.0682 29.617 11.5604 29.617 6.54478V2C29.617 0.89543 28.7216 0 27.617 0H2C0.895432 0 0 0.895431 0 2V15.2918C0 17.0654 2.13729 17.9614 3.40208 16.7181L13.4064 6.88327Z" fill="#1877F2"/>
</svg>
